<?xml version="1.0" encoding="UTF-8"?>
<svg width="513px" height="330px" viewBox="0 0 513 330" version="1.1" xmlns="http://www.w3.org/2000/svg" xmlns:xlink="http://www.w3.org/1999/xlink">
    <!-- Generator: Sketch 48 (47235) - http://www.bohemiancoding.com/sketch -->
    <title>illustration1</title>
    <desc>Created with Sketch.</desc>
    <defs></defs>
    <g id="Page-1" stroke="none" stroke-width="1" fill="none" fill-rule="evenodd">
        <g id="illustration1" fill-rule="nonzero">
            <circle id="Oval" fill="#D43838" cx="263.72" cy="186.538" r="103.072"></circle>
            <path d="M263.627,312.748 L263.625,312.04 C264.251,312.038 264.877,312.032 265.503,312.022 L265.515,312.73 C264.886,312.74 264.257,312.746 263.627,312.748 Z M259.851,312.699 C259.221,312.681 258.593,312.659 257.964,312.633 L257.993,311.925 C258.618,311.951 259.245,311.974 259.871,311.991 L259.851,312.699 Z M269.29,312.61 L269.257,311.902 C269.883,311.874 270.507,311.839 271.132,311.8 L271.177,312.506 C270.548,312.546 269.919,312.58 269.29,312.61 Z M254.194,312.414 C253.565904,312.369172 252.938213,312.318837 252.311,312.263 L252.374,311.559 C252.998,311.614 253.621,311.663 254.245,311.708 L254.194,312.414 Z M274.941,312.219 L274.875,311.515 C275.499,311.456 276.122,311.395 276.745,311.328 L276.82,312.032 C276.194,312.099 275.567,312.16 274.941,312.219 Z M248.555,311.878 C247.93,311.804 247.306,311.726 246.682,311.644 L246.774,310.942 C247.395,311.024 248.016,311.102 248.637,311.176 L248.555,311.878 Z M280.569,311.573 L280.473,310.873 C281.093,310.788 281.712,310.698 282.331,310.603 L282.438,311.303 C281.816,311.398 281.193,311.488 280.569,311.573 Z M242.946,311.091 C242.325,310.989 241.705,310.883 241.086,310.773 L241.21,310.077 C241.827,310.186 242.443,310.292 243.061,310.393 L242.946,311.091 Z M286.164,310.678 L286.037,309.982 C286.652,309.87 287.267,309.752 287.882,309.628 L288.021,310.323 C287.402,310.445 286.783,310.563 286.164,310.678 Z M237.38,310.054 C236.765,309.925 236.15,309.792 235.536,309.655 L235.692,308.964 C236.302,309.102 236.913,309.235 237.525,309.362 L237.38,310.054 Z M291.714,309.529 L291.556,308.84 C292.165,308.699 292.775,308.555 293.383,308.404 L293.553,309.092 C292.94,309.242 292.327,309.389 291.714,309.529 Z M231.866,308.771 C231.257,308.614 230.649,308.454 230.042,308.288 L230.228,307.606 C230.832,307.77 231.436,307.929 232.042,308.085 L231.866,308.771 Z M297.205,308.133 L297.016,307.45 C297.62,307.283 298.221,307.109 298.822,306.932 L299.023,307.611 C298.418,307.79 297.813,307.963 297.205,308.133 Z M226.415,307.242 C225.81312,307.059319 225.212766,306.871645 224.614,306.679 L224.831,306.005 C225.426,306.196 226.023,306.383 226.621,306.565 L226.415,307.242 Z M302.63,306.487 L302.408,305.814 C303.004,305.619 303.597,305.419 304.19,305.215 L304.42,305.884 C303.825,306.09 303.229,306.29 302.63,306.487 Z M221.039,305.473 C220.447,305.263 219.855,305.049 219.266,304.83 L219.512,304.166 C220.099,304.384 220.687,304.598 221.276,304.806 L221.039,305.473 Z M307.974,304.601 L307.723,303.939 C308.309,303.718 308.893,303.491 309.476,303.259 L309.738,303.916 C309.15,304.149 308.563,304.377 307.974,304.601 Z M215.748,303.465 C215.16502,303.228801 214.584,302.987793 214.005,302.742 L214.282,302.092 C214.857,302.336 215.435,302.574 216.013,302.809 L215.748,303.465 Z M313.228,302.472 L312.948,301.822 C313.523,301.574 314.096,301.321 314.67,301.064 L314.959,301.709 C314.383,301.968 313.806,302.222 313.228,302.472 Z M210.553,301.221 C209.982,300.959 209.412,300.694 208.845,300.421 L209.151,299.783 C209.715,300.054 210.281,300.317 210.848,300.578 L210.553,301.221 Z M318.382,300.106 L318.072,299.47 C318.635,299.196 319.197,298.917 319.758,298.634 L320.076,299.267 C319.513,299.552 318.948,299.831 318.382,300.106 Z M205.466,298.746 C204.908,298.46 204.352,298.168 203.797,297.872 L204.13,297.247 C204.682,297.541 205.235,297.831 205.791,298.118 L205.466,298.746 Z M323.424,297.512 L323.085,296.891 C323.636,296.591 324.185,296.287 324.731,295.98 L325.078,296.597 C324.529,296.906 323.978,297.21 323.424,297.512 Z M200.496,296.047 C199.952,295.735 199.409,295.419 198.868,295.098 L199.229,294.491 C199.767,294.809 200.306,295.124 200.848,295.434 L200.496,296.047 Z M328.344,294.692 L327.979,294.086 C328.515,293.763 329.049,293.435 329.583,293.103 L329.957,293.704 C329.422,294.037 328.884,294.367 328.344,294.692 Z M195.654,293.127 C195.124,292.791 194.596,292.45 194.071,292.106 L194.459,291.515 C194.981,291.858 195.506,292.196 196.034,292.531 L195.654,293.127 Z M333.135,291.655 L332.742,291.065 C333.263,290.717 333.783,290.366 334.302,290.01 L334.702,290.594 C334.182,290.952 333.658,291.306 333.135,291.655 Z M190.95,289.992 C190.436,289.633 189.925,289.268 189.415,288.9 L189.829,288.327 C190.336,288.693 190.845,289.054 191.356,289.411 L190.95,289.992 Z M337.785,288.407 L337.367,287.836 C337.874,287.465 338.377,287.091 338.88,286.712 L339.037,286.593 L339.463,287.158 L339.309,287.275 C338.801,287.658 338.294,288.034 337.785,288.407 Z M186.393,286.648 C185.896,286.266 185.402,285.88 184.91,285.49 L185.35,284.935 C185.839,285.324 186.33,285.708 186.825,286.087 L186.393,286.648 Z M342.439,284.835 L341.997,284.284 C342.485,283.891 342.969,283.495 343.45,283.096 L343.901,283.641 C343.419,284.042 342.932,284.44 342.439,284.835 Z M181.993,283.105 C181.514,282.7 181.037,282.292 180.564,281.881 L181.028,281.346 C181.499,281.756 181.973,282.161 182.449,282.563 L181.993,283.105 Z M346.773,281.189 L346.305,280.658 C346.775,280.245 347.241,279.827 347.704,279.408 L348.18,279.931 C347.715,280.354 347.245,280.773 346.773,281.189 Z M177.758,279.366 C177.297,278.94 176.837,278.511 176.381,278.075 L176.868,277.563 C177.322,277.994 177.779,278.422 178.238,278.846 L177.758,279.366 Z M350.938,277.354 L350.448,276.843 C350.899,276.409 351.346,275.972 351.791,275.531 L352.289,276.034 C351.843,276.478 351.393,276.917 350.938,277.354 Z M173.686,275.432 C173.244,274.986 172.805,274.535 172.368,274.079 L172.879,273.589 C173.313,274.042 173.75,274.489 174.19,274.934 L173.686,275.432 Z M354.931,273.336 L354.417,272.85 C354.848,272.395 355.275,271.937 355.699,271.479 L356.219,271.958 C355.793,272.42 355.364,272.879 354.931,273.336 Z M169.793,271.318 C169.372,270.852 168.953,270.382 168.538,269.908 L169.07,269.442 C169.484,269.913 169.9,270.38 170.319,270.842 L169.793,271.318 Z M358.73,269.149 L358.196,268.684 C358.605,268.213 359.009,267.739 359.41,267.262 L359.952,267.717 C359.55,268.198 359.142,268.675 358.73,269.149 Z M166.088,267.036 C165.687999,266.552603 165.291985,266.06592 164.9,265.576 L165.452,265.134 C165.843,265.622 166.237,266.106 166.634,266.585 L166.088,267.036 Z M362.334,264.799 L361.779,264.361 C362.167,263.871 362.55,263.379 362.928,262.883 L363.491,263.315 C363.108,263.811 362.724,264.307 362.334,264.799 Z M162.583,262.6 L162.548,262.554 C162.178,262.065 161.813,261.572 161.451,261.078 L162.021,260.66 C162.381,261.151 162.745,261.64 163.113,262.129 L162.583,262.6 Z M365.738,260.29 L365.166,259.875 C365.53,259.369 365.892,258.86 366.248,258.349 L366.829,258.752 C366.470417,259.268254 366.106732,259.780946 365.738,260.29 Z M159.262,257.996 C158.904,257.475 158.55,256.953 158.201,256.429 L158.79,256.036 C159.137,256.558 159.489,257.077 159.845,257.594 L159.262,257.996 Z M368.938,255.629 L368.346,255.241 C368.688,254.719 369.026,254.193 369.359,253.666 L369.959,254.044 C369.623,254.575 369.282,255.104 368.938,255.629 Z M156.151,253.252 C155.81743,252.716867 155.487423,252.179522 155.161,251.64 L155.766,251.274 C156.09,251.81 156.418,252.344 156.751,252.878 L156.151,253.252 Z M371.926,250.828 L371.317,250.469 C371.635,249.931 371.95,249.391 372.259,248.849 L372.872,249.2 C372.561,249.744 372.246,250.288 371.926,250.828 Z M153.256,248.376 C152.946,247.826 152.64,247.273 152.339,246.721 L152.961,246.382 C153.261,246.933 153.564,247.482 153.873,248.028 L153.256,248.376 Z M374.694,245.896 L374.069,245.565 C374.362,245.012 374.652,244.459 374.936,243.903 L375.567,244.226 C375.28,244.785 374.989,245.343 374.694,245.896 Z M150.584,243.373 C150.299,242.809 150.018,242.245 149.743,241.678 L150.38,241.368 C150.653,241.931 150.932,242.493 151.216,243.054 L150.584,243.373 Z M377.238,240.845 L376.599,240.541 C376.867,239.976 377.131,239.41 377.391,238.842 L378.035,239.137 C377.773,239.707 377.509,240.276 377.238,240.845 Z M148.14,238.257 C147.88,237.682 147.626,237.105 147.376,236.527 L148.026,236.247 C148.274,236.821 148.527,237.394 148.785,237.967 L148.14,238.257 Z M379.552,235.682 L378.9,235.408 C379.142,234.832 379.381,234.253 379.616,233.675 L380.272,233.94 C380.035,234.521 379.796,235.102 379.552,235.682 Z M145.93,233.037 C145.697,232.449 145.469,231.861 145.246,231.273 L145.908,231.023 C146.13,231.607 146.357,232.191 146.588,232.775 L145.93,233.037 Z M381.633,230.421 L380.969,230.174 C381.187,229.587 381.4,228.998 381.607,228.41 L382.275,228.645 C382.064,229.238 381.852,229.83 381.633,230.421 Z M143.958,227.722 C143.752,227.126 143.551,226.529 143.354,225.93 L144.027,225.709 C144.222,226.304 144.422,226.897 144.627,227.491 L143.958,227.722 Z M383.477,225.068 L382.802,224.852 C382.994,224.256 383.179,223.66 383.36,223.061 L384.039,223.266 C383.855,223.868 383.668,224.469 383.477,225.068 Z M142.23,222.324 C142.051,221.719 141.877,221.114 141.708,220.507 L142.39,220.317 C142.558,220.921 142.731,221.523 142.908,222.124 L142.23,222.324 Z M385.08,219.64 L384.396,219.455 C384.56,218.851 384.718,218.245 384.874,217.64 L385.56,217.815 C385.404,218.424 385.244,219.031 385.08,219.64 Z M140.747,216.854 C140.596,216.242 140.449,215.629 140.308,215.015 L140.997,214.857 C141.138,215.467 141.284,216.077 141.434,216.684 L140.747,216.854 Z M386.438,214.143 L385.747,213.99 C385.884,213.378 386.016,212.767 386.143,212.155 L386.836,212.299 C386.709,212.914 386.575,213.528 386.438,214.143 Z M139.513,211.322 C139.39,210.704 139.271,210.086 139.158,209.467 L139.854,209.339 C139.967,209.955 140.085,210.569 140.208,211.185 L139.513,211.322 Z M387.55,208.592 L386.854,208.469 C386.963,207.852 387.068,207.236 387.167,206.618 L387.866,206.73 C387.766,207.352 387.659,207.972 387.55,208.592 Z M138.531,205.742 C138.435438,205.119722 138.344769,204.496703 138.259,203.873 L138.96,203.776 C139.045,204.396 139.136,205.016 139.23,205.635 L138.531,205.742 Z M388.414,202.995 L387.712,202.903 C387.793,202.283 387.87,201.662 387.943,201.04 L388.645,201.123 C388.573,201.747 388.495,202.371 388.414,202.995 Z M137.799,200.124 C137.732,199.497 137.67,198.87 137.611,198.245 L138.316,198.179 C138.374,198.803 138.436,199.425 138.503,200.048 L137.799,200.124 Z M389.028,197.364 L388.322,197.303 C388.376,196.679 388.426,196.055 388.47,195.431 L389.176,195.482 C389.131,196.109 389.081,196.737 389.028,197.364 Z M137.321,194.479 C137.282,193.85 137.248,193.222 137.218,192.592 L137.925,192.559 C137.955,193.185 137.989,193.81 138.028,194.435 L137.321,194.479 Z M389.39,191.712 L388.682,191.683 C388.708,191.058 388.73,190.432 388.746,189.807 L389.454,189.825 C389.438,190.454 389.416,191.083 389.39,191.712 Z M137.097,188.818 C137.086,188.188 137.08,187.559 137.078,186.929 L137.786,186.927 C137.787,187.553 137.793,188.179 137.804,188.805 L137.097,188.818 Z M388.791,186.051 C388.788505,185.424958 388.781505,184.798942 388.77,184.173 L389.478,184.16 C389.489,184.789 389.496,185.419 389.499,186.047 L388.791,186.051 Z M137.833,183.173 L137.125,183.154 C137.142,182.525 137.165,181.895 137.191,181.267 L137.898,181.296 C137.872,181.922 137.851,182.547 137.833,183.173 Z M388.646,180.419 C388.617814,179.793657 388.583146,179.168624 388.542,178.544 L389.248,178.5 C389.288,179.128 389.323,179.757 389.353,180.386 L388.646,180.419 Z M138.114,177.548 L137.408,177.496 C137.453,176.868 137.503,176.241 137.558,175.613 L138.263,175.676 C138.208,176.3 138.159,176.924 138.114,177.548 Z M388.251,174.801 C388.193,174.177 388.131,173.554 388.063,172.931 L388.767,172.856 C388.834,173.483 388.897,174.109 388.955,174.735 L388.251,174.801 Z M138.645,171.94 L137.942,171.857 C138.016,171.232 138.093,170.608 138.176,169.984 L138.877,170.077 C138.795,170.697 138.718,171.319 138.645,171.94 Z M387.605,169.203 C387.519,168.583 387.427,167.964 387.332,167.346 L388.033,167.237 C388.129,167.86 388.22,168.484 388.305,169.108 L387.605,169.203 Z M139.425,166.363 L138.727,166.249 C138.828,165.628 138.934,165.008 139.044,164.389 L139.741,164.513 C139.631,165.128 139.526,165.745 139.425,166.363 Z M386.705,163.642 C386.592548,163.025883 386.474209,162.410855 386.35,161.797 L387.045,161.658 C387.168,162.276 387.287,162.895 387.401,163.514 L386.705,163.642 Z M140.453,160.826 L139.76,160.681 C139.889,160.065 140.022,159.45 140.16,158.836 L140.85,158.992 C140.713,159.603 140.581,160.214 140.453,160.826 Z M385.559,158.126 C385.416,157.516 385.271,156.907 385.121,156.298 L385.809,156.128 C385.959,156.74 386.107,157.353 386.249,157.965 L385.559,158.126 Z M141.728,155.342 L141.042,155.167 C141.198,154.558 141.358,153.949 141.523,153.342 L142.206,153.529 C142.042,154.132 141.882,154.736 141.728,155.342 Z M384.161,152.666 C383.993,152.063 383.819,151.461 383.641,150.86 L384.32,150.659 C384.5,151.263 384.674,151.869 384.843,152.475 L384.161,152.666 Z M143.245,149.922 L142.568,149.715 C142.751,149.113 142.939,148.513 143.131,147.915 L143.805,148.131 C143.613,148.727 143.427,149.323 143.245,149.922 Z M382.521,147.275 C382.325,146.68 382.125,146.087 381.918,145.494 L382.587,145.263 C382.793,145.859 382.995,146.456 383.192,147.054 L382.521,147.275 Z M145.002,144.574 L144.335,144.338 C144.544,143.746 144.759,143.155 144.977,142.565 L145.641,142.811 C145.423545,143.397042 145.210539,143.984726 145.002,144.574 Z M380.637,141.963 C380.413,141.377 380.186,140.793 379.954,140.21 L380.612,139.949 C380.845,140.535 381.073,141.122 381.298,141.711 L380.637,141.963 Z M146.997,139.313 L146.341,139.047 C146.577134,138.464272 146.817474,137.883257 147.062,137.304 L147.714,137.58 C147.471,138.156 147.231,138.734 146.997,139.313 Z M378.514,136.741 C378.265,136.167 378.011,135.593 377.753,135.021 L378.399,134.729 C378.659,135.304 378.914,135.881 379.164,136.458 L378.514,136.741 Z M149.226,134.146 L148.583,133.852 C148.844,133.281 149.11,132.711 149.381,132.144 L150.02,132.448 C149.75,133.013 149.486,133.579 149.226,134.146 Z M376.156,131.619 C375.882,131.056 375.602,130.495 375.319,129.935 L375.949,129.615 C376.235,130.178 376.516,130.743 376.792,131.309 L376.156,131.619 Z M151.683,129.086 L151.054,128.763 C151.341,128.204 151.632,127.647 151.928,127.093 L152.553,127.426 C152.258,127.978 151.969,128.531 151.683,129.086 Z M373.57,126.609 C373.27,126.059 372.966,125.51 372.658,124.964 L373.273,124.616 C373.584,125.166 373.889,125.718 374.191,126.271 L373.57,126.609 Z M154.365,124.144 L153.752,123.792 C154.063,123.247 154.379,122.705 154.7,122.164 L155.309,122.524 C154.99,123.062 154.676,123.602 154.365,124.144 Z M370.76,121.719 C370.436,121.183 370.107,120.649 369.775,120.116 L370.376,119.741 C370.711,120.276 371.041,120.814 371.367,121.353 L370.76,121.719 Z M157.268,119.327 L156.67,118.949 C157.006,118.419 157.346,117.891 157.69,117.365 L158.283,117.753 C157.94,118.275 157.602,118.8 157.268,119.327 Z M367.734,116.958 C367.386,116.437 367.034,115.917 366.677,115.4 L367.259,114.998 C367.618,115.518 367.972,116.04 368.322,116.564 L367.734,116.958 Z M160.383,114.648 L159.803,114.243 C160.162,113.729 160.526,113.217 160.893,112.708 L161.467,113.122 C161.102,113.628 160.74,114.138 160.383,114.648 Z M364.499,112.336 C364.158,111.871 363.812,111.407 363.465,110.945 L363.373,110.824 L363.94,110.402 L364.027,110.516 C364.381,110.983 364.727,111.45 365.07,111.917 L364.499,112.336 Z M163.705,110.116 L163.144,109.684 C163.526,109.187 163.912,108.692 164.302,108.2 L164.857,108.639 C164.469,109.129 164.085,109.622 163.705,110.116 Z M361.064,107.866 C360.673,107.377 360.277,106.893 359.878,106.412 L360.423,105.96 C360.824,106.444 361.223,106.932 361.616,107.423 L361.064,107.866 Z M167.228,105.74 L166.687,105.284 C167.091,104.805 167.499,104.328 167.91,103.854 L168.445,104.319 C168.035,104.79 167.63,105.263 167.228,105.74 Z M357.44,103.555 C357.028,103.085 356.611,102.618 356.191,102.155 L356.714,101.679 C357.137,102.145 357.557,102.615 357.972,103.088 L357.44,103.555 Z M170.943,101.527 L170.422,101.047 C170.848,100.585 171.278,100.126 171.713,99.669 L172.226,100.156 C171.794,100.611 171.367,101.068 170.943,101.527 Z M353.629,99.411 C353.195208,98.9598874 352.757861,98.5122068 352.317,98.068 L352.82,97.569 C353.262,98.015 353.703,98.465 354.139,98.92 L353.629,99.411 Z M174.854,97.476 L174.355,96.973 C174.802,96.531 175.252,96.091 175.707,95.655 L176.197,96.166 C175.745,96.599 175.297,97.036 174.854,97.476 Z M349.634,95.442 C349.181,95.01 348.724,94.583 348.265,94.159 L348.744,93.638 C349.207,94.064 349.666,94.495 350.123,94.929 L349.634,95.442 Z M178.942,93.603 L178.467,93.079 C178.933,92.657 179.402,92.238 179.876,91.822 L180.343,92.354 C179.873,92.767 179.406,93.184 178.942,93.603 Z M345.473,91.661 C345.002,91.251 344.528,90.847 344.051,90.446 L344.507,89.904 C344.986,90.308 345.463,90.715 345.938,91.127 L345.473,91.661 Z M183.2,89.917 L182.748,89.372 C183.232,88.972 183.72,88.574 184.211,88.179 L184.654,88.731 C184.167,89.123 183.682,89.519 183.2,89.917 Z M341.149,88.076 C340.659747,87.6883963 340.167398,87.3047173 339.672,86.925 L340.104,86.364 C340.6,86.745 341.095,87.131 341.587,87.521 L341.149,88.076 Z M187.615,86.425 L187.192,85.858 L187.268,85.801 C187.749,85.438 188.228,85.082 188.709,84.729 L189.127,85.299 C188.649,85.65 188.172,86.004 187.698,86.362 L187.615,86.425 Z M336.667,84.688 C336.159,84.323 335.65,83.961 335.139,83.605 L335.544,83.024 C336.058,83.383 336.57,83.747 337.08,84.114 L336.667,84.688 Z M192.192,83.122 L191.791,82.539 C192.312,82.18 192.834,81.827 193.358,81.477 L193.751,82.066 C193.229,82.413 192.709,82.765 192.192,83.122 Z M332.034,81.505 C331.511,81.163 330.986,80.824 330.459,80.491 L330.837,79.893 C331.368,80.228 331.896,80.569 332.421,80.913 L332.034,81.505 Z M196.908,80.027 L196.533,79.426 C197.069,79.091 197.606,78.761 198.145,78.435 L198.511,79.04 C197.975,79.365 197.441,79.693 196.908,80.027 Z M327.261,78.532 C326.724263,78.2138895 326.184912,77.9002122 325.643,77.591 L325.993,76.976 C326.539,77.288 327.082,77.603 327.623,77.923 L327.261,78.532 Z M201.757,77.146 L201.409,76.529 C201.959,76.218 202.511,75.913 203.064,75.612 L203.402,76.234 C202.853,76.533 202.304,76.837 201.757,77.146 Z M322.358,75.778 C321.804,75.485 321.252,75.195 320.696,74.909 L321.02,74.28 C321.578,74.567 322.134,74.858 322.689,75.154 L322.358,75.778 Z M206.729,74.486 L206.409,73.855 C206.972,73.57 207.537,73.29 208.103,73.014 L208.413,73.65 C207.851,73.924 207.289,74.203 206.729,74.486 Z M317.336,73.248 C316.771,72.978 316.204,72.715 315.637,72.455 L315.931,71.811 C316.503,72.072 317.072,72.338 317.64,72.608 L317.336,73.248 Z M211.816,72.054 L211.525,71.408 C212.099751,71.149017 212.676434,70.8943432 213.255,70.644 L213.536,71.293 C212.962,71.542 212.388,71.796 211.816,72.054 Z M312.202,70.944 C311.626,70.701 311.048,70.462 310.469,70.228 L310.735,69.572 C311.318,69.808 311.899,70.048 312.478,70.292 L312.202,70.944 Z M217.006,69.854 L216.745,69.196 C217.331,68.963 217.919,68.735 218.507,68.511 L218.758,69.173 C218.173,69.396 217.589,69.623 217.006,69.854 Z M306.97,68.873 C306.383298,68.6567604 305.795288,68.4440898 305.206,68.235 L305.442,67.568 C306.034,67.777 306.625,67.991 307.214,68.21 L306.97,68.873 Z M222.291,67.892 L222.06,67.223 C222.656,67.017 223.253,66.816 223.852,66.619 L224.073,67.292 C223.477,67.487 222.883,67.687 222.291,67.892 Z M301.65,67.038 C301.054,66.847 300.457,66.661 299.859,66.479 L300.064,65.802 C300.666,65.985 301.266,66.172 301.865,66.364 L301.65,67.038 Z M227.657,66.171 L227.456,65.493 C228.06,65.314 228.666,65.139 229.272,64.97 L229.462,65.652 C228.86,65.821 228.258,65.994 227.657,66.171 Z M296.252,65.442 C295.648,65.278 295.043,65.119 294.438,64.964 L294.614,64.278 C295.223,64.434 295.831,64.594 296.437,64.758 L296.252,65.442 Z M233.096,64.695 L232.927,64.007 C233.538,63.857 234.151,63.71 234.764,63.568 L234.925,64.257 C234.313,64.399 233.705,64.545 233.096,64.695 Z M290.788,64.089 C290.177,63.952 289.565,63.82 288.954,63.693 L289.098,63 C289.713,63.128 290.328,63.262 290.943,63.398 L290.788,64.089 Z M238.595,63.466 L238.457,62.772 C239.074,62.648 239.693,62.53 240.312,62.416 L240.44,63.112 C239.825,63.226 239.21,63.344 238.595,63.466 Z M285.268,62.981 C284.652,62.871 284.035,62.766 283.417,62.666 L283.529,61.968 C284.15,62.069 284.77,62.174 285.39,62.284 L285.268,62.981 Z M244.144,62.486 L244.036,61.787 C244.659,61.691 245.283,61.6 245.906,61.514 L246.003,62.215 C245.383,62.301 244.764,62.392 244.144,62.486 Z M279.701,62.12 C279.081,62.038 278.46,61.961 277.838,61.889 L277.921,61.186 C278.545,61.259 279.17,61.337 279.794,61.419 L279.701,62.12 Z M249.73,61.757 L249.655,61.053 C250.281,60.986 250.907,60.923 251.535,60.865 L251.599,61.57 C250.976,61.627 250.353,61.69 249.73,61.757 Z M274.104,61.508 C273.480031,61.454156 272.855682,61.4048214 272.231,61.36 L272.283,60.654 C272.91,60.699 273.537,60.75 274.165,60.803 L274.104,61.508 Z M255.344,61.28 L255.3,60.573 C255.928,60.534 256.558,60.499 257.186,60.469 L257.219,61.176 C256.594,61.207 255.969,61.241 255.344,61.28 Z M268.481,61.146 C267.856,61.12 267.231,61.099 266.605,61.082 L266.624,60.374 C267.253,60.391 267.883,60.413 268.511,60.439 L268.481,61.146 Z M260.973,61.055 L260.96,60.347 C261.59,60.336 262.219,60.329 262.849,60.327 L262.851,61.035 C262.225,61.037 261.599,61.044 260.973,61.055 Z" id="Shape" fill="#D2D3D4"></path>
            <circle id="Oval" fill="#FFFFFF" cx="263.289" cy="186.537" r="74.653"></circle>
            <path d="M117.138,194.149 C115.267296,194.157616 113.503084,193.27959 112.382,191.782 C111.427228,190.523262 111.015002,188.935202 111.237,187.371 C111.451793,185.806051 112.283107,184.391844 113.546,183.443 C114.576744,182.661396 115.835426,182.239493 117.129,182.242 C119.017,182.242 120.75,183.105 121.885,184.61 C123.860209,187.236029 123.338274,190.965162 120.718,192.948 C119.688458,193.72971 118.430679,194.151663 117.138,194.149 Z M117.129,183.186 C116.04065,183.184365 114.981827,183.539882 114.115,184.198 C113.051871,184.995467 112.352169,186.185286 112.172,187.502 C111.984459,188.818596 112.331201,190.155517 113.135,191.215 C114.078872,192.47511 115.563603,193.213952 117.138,193.207 C118.232,193.207 119.274,192.857 120.151,192.195 C122.355813,190.526101 122.794972,187.38804 121.133,185.178 C120.188813,183.917732 118.703711,183.17889 117.129,183.186 Z M212.842,50.593 C210.970591,50.6014625 209.205873,49.7226279 208.085,48.224 C207.130026,46.9657669 206.718088,45.3777892 206.941,43.814 C207.156652,42.2491336 207.988669,40.8353177 209.252,39.887 C210.282065,39.1047161 211.540557,38.682408 212.834,38.685 C214.721,38.685 216.454,39.548 217.588,41.053 C218.543283,42.3114898 218.955565,43.8997663 218.733,45.464 C218.518671,47.029081 217.686803,48.4432562 216.423,49.391 C215.393524,50.1736735 214.135209,50.5960399 212.842,50.593 Z M212.833,39.629 C211.738,39.629 210.696,39.979 209.82,40.64 C208.756861,41.4380492 208.056916,42.6280273 207.876,43.945 C207.68782,45.2608551 208.03426,46.5972797 208.838,47.656 C209.781977,48.916645 211.267112,49.6558746 212.842,49.649 C213.929718,49.6515208 214.988082,49.2962732 215.854,48.638 C216.916885,47.839724 217.616762,46.6498611 217.798,45.333 C217.985379,44.0167259 217.638639,42.6801755 216.835,41.621 C215.891548,40.3609216 214.407119,39.6220457 212.833,39.629 Z M398.284,137.518 C396.413333,137.526456 394.649189,136.648465 393.528,135.151 C392.57307,133.89236 392.161152,132.304098 392.384,130.74 C392.598261,129.175169 393.430171,127.761281 394.694,126.814 C395.723924,126.031451 396.982509,125.609112 398.276,125.612 C400.163,125.612 401.896,126.475 403.033,127.98 C405.008462,130.605821 404.485991,134.335135 401.865,136.317 C400.835081,137.098719 399.576985,137.52066 398.284,137.518 Z M398.276,126.555 C397.187742,126.55293 396.128884,126.908107 395.262,127.566 C394.198665,128.363435 393.498633,129.553203 393.318,130.87 C393.130557,132.185965 393.477316,133.522231 394.281,134.581 C395.224662,135.841362 396.709529,136.580271 398.284,136.573 C399.372258,136.57507 400.431116,136.219893 401.298,135.562 C403.502877,133.893463 403.941664,130.755309 402.279,128.546 C401.33429,127.28702 399.849998,126.548767 398.276,126.555 Z" id="Shape" fill="#D5D6E8"></path>
            <path d="M251.875,166.35 C254.025,165.292 255.723,164.689 258.476,161.408 L265.189,161.408 L265.189,182.756 L268.697,182.756 L268.697,187.772 L253.61,187.772 L253.61,182.756 L257.383,182.756 L257.383,168.762 L253.61,170.535 L251.875,166.35 Z M268.431,169.448 C268.889,169.727 269.843,170.04 270.582,170.04 C271.34,170.04 271.651,169.794 271.651,169.382 C271.651,168.954 271.405,168.757 270.483,168.444 C268.804,167.886 268.166,166.981 268.18,166.028 C268.18,164.515 269.462,163.381 271.453,163.381 C272.39,163.381 273.213,163.611 273.705,163.857 L273.279,165.585 C272.917,165.387 272.21,165.124 271.535,165.124 C270.928,165.124 270.581,165.37 270.581,165.766 C270.581,166.16 270.894,166.358 271.882,166.703 C273.41,167.229 274.035,168.019 274.05,169.185 C274.05,170.699 272.883,171.799 270.581,171.799 C269.528,171.799 268.592,171.553 267.984,171.224 L268.431,169.448 Z M278.381,161.408 L278.381,163.579 L280.173,163.579 L280.173,165.419 L278.381,165.419 L278.381,168.329 C278.381,169.3 278.627,169.744 279.366,169.744 C279.715,169.744 279.879,169.727 280.107,169.678 L280.125,171.569 C279.811,171.684 279.204,171.783 278.511,171.783 C277.704,171.783 277.033,171.505 276.622,171.094 C276.161,170.615 275.932,169.843 275.932,168.708 L275.932,165.42 L274.864,165.42 L274.864,163.58 L275.932,163.58 L275.932,162.082 L278.381,161.408 Z" id="Shape" fill="#FFFFFF"></path>
            <path d="M204.406,323.916 C204.406,323.916 209.517,324.983 209.957,325.741 C210.397,326.499 209.274,327.355 205.006,326.918 C200.737,326.482 198.83,326.131 198.83,326.131 L199.103,324.229 L204.406,323.916 Z M181.331,325.611 C181.331,325.611 176.423,327.311 176.084,328.12 C175.745,328.926 176.961,329.635 181.118,328.664 C185.273,327.695 187.11,327.108 187.11,327.108 L186.602,325.254 L181.331,325.611 Z" id="Shape" fill="#353537"></path>
            <path d="M203.941,278.495 L204.405,323.916 C204.405,323.916 198.851,325.523 198.543,323.973 C198.236,322.421 195.64,284.675 191.793,285.127 C187.946,285.579 187.317,325.311 187.317,325.311 C187.317,325.311 181.62,326.3 181.352,325.375 C181.084,324.448 183.796,279.559 183.796,279.559 L203.941,278.495 Z" id="Shape" fill="#484859"></path>
            <path d="M239.172,246.552 C239.172,246.552 240.622,244.205 239.654,244.412 C238.688,244.619 237.861,246.552 237.861,246.552 L239.172,246.552 Z" id="Shape" fill="#F3B98B"></path>
            <path d="M240.845,246.69 C240.845,246.69 242.388,243.364 241.359,243.658 C240.33,243.951 239.448,246.69 239.448,246.69 L240.845,246.69 Z" id="Shape" fill="#F3B98B"></path>
            <path d="M204.79,274.607 L204.164,278.788 C204.164,278.788 203.328,281.715 193.295,282.132 C183.26,282.551 183.051,278.788 183.051,278.788 L183.26,275.025 L204.79,274.607 Z" id="Shape" fill="#2E2C2A"></path>
            <polygon id="Shape" fill="#808082" points="188.068 279.206 195.593 279.206 195.593 282.76 188.068 282.76"></polygon>
            <path d="M201.655,246.597 C201.655,246.597 204.79,247.433 205,248.896 C205.208,250.36 205.627,273.353 205.208,275.863 C204.79,278.371 199.773,279.834 194.129,279.834 C188.485,279.834 184.723,279.834 183.05,277.116 C181.379,274.399 185.35,252.241 185.558,249.733 C185.767,247.223 191.62,246.387 191.62,246.387 L201.655,246.597 Z" id="Shape" fill="#D5E4F2"></path>
            <path d="M194.966,252.24 C194.966,252.24 195.385,270.008 196.219,271.68 C197.056,273.352 193.294,277.324 193.294,277.324 C193.294,277.324 188.276,274.189 188.485,272.934 C188.693,271.68 193.294,252.24 193.294,252.24 L194.966,252.24 Z" id="Shape" fill="#CA2027"></path>
            <path d="M201.655,246.597 C201.655,246.597 203.817,248.19 205,248.896 C206.182,249.603 204.112,275.277 206.182,276.933 C208.254,278.59 195.416,281.281 190.239,280.661 C185.063,280.039 181.543,278.383 181.75,276.933 C181.958,275.484 183.613,252.087 184.443,250.431 C185.271,248.775 185.878,248.178 187.023,248.269 C188.169,248.361 186.719,253.537 186.719,253.537 L188.79,257.471 C188.79,257.471 192.93,259.541 194.277,259.541 C195.623,259.541 200.177,257.471 200.591,256.436 C201.005,255.401 202.455,252.295 201.834,250.846 C201.213,249.396 201.655,246.597 201.655,246.597 Z" id="Shape" fill="#2AAAE2"></path>
            <circle id="Oval" fill="#CA2027" cx="193.92" cy="250.777" r="2.508"></circle>
            <path d="M188.451,257.883 C186.89,256.364 186.03,254.342 186.03,252.191 C186.03,250.04 186.89,248.018 188.451,246.499 C190.01026,244.982972 192.102254,244.139496 194.277,244.15 C196.476,244.15 198.546,244.984 200.101,246.499 C201.664,248.019 202.524,250.04 202.524,252.191 C202.524,254.342 201.664,256.365 200.101,257.883 C198.542134,259.398268 196.450935,260.241354 194.277,260.231 C192.102682,260.240274 190.011252,259.397384 188.451,257.883 Z M187.41,252.19 C187.41,255.862 190.49,258.85 194.278,258.85 C198.064,258.85 201.144,255.862 201.144,252.19 C201.144,248.517 198.063,245.53 194.278,245.53 C190.49,245.53 187.41,248.518 187.41,252.19 Z" id="Shape" fill="#19335E"></path>
            <path d="M193.711,248.687 L197.475,255.167 C197.475,255.167 202.701,248.06 201.655,246.597 C200.61,245.133 196.848,244.088 196.848,244.088 L193.711,248.687 Z" id="Shape" fill="#ACC9E6"></path>
            <path d="M194.548,249.314 L189.113,255.585 C189.113,255.585 186.187,250.359 187.023,248.269 C187.859,246.179 189.95,245.133 189.95,245.133 L194.548,249.314 Z" id="Shape" fill="#ACC9E6"></path>
            <ellipse id="Oval" fill="#F6BB8C" cx="193.712" cy="245.133" rx="3.763" ry="4.6"></ellipse>
            <path d="M214.653,219.313 C214.653,219.313 218.878,215.438 220.64,217.2 C222.401,218.961 216.237,229.88 214.3,226.181 C212.363,222.482 214.653,219.313 214.653,219.313 Z M173.226,219.137 C173.226,219.137 168.738,215.262 166.869,217.025 C164.999,218.786 171.544,229.704 173.602,226.005 C175.657,222.307 173.226,219.137 173.226,219.137 Z" id="Shape" fill="#F6BB8C"></path>
            <path d="M213.42,224.068 C213.42,224.068 216.237,223.714 216.414,219.489 C216.59,215.261 219.231,205.049 217.118,203.111 C215.004,201.174 216.237,193.425 202.853,187.966 C189.469,182.507 176.966,190.607 174.852,194.305 L172.74,198.003 C172.74,198.003 168.16,214.205 172.386,220.898 C176.615,227.591 213.42,224.068 213.42,224.068 Z" id="Shape" fill="#512E17"></path>
            <path d="M212.715,203.991 C212.011,203.815 204.438,207.162 194.929,207.338 C185.419,207.515 173.971,204.168 173.971,204.168 C173.971,204.168 170.45,228.999 176.966,236.395 C183.481,243.792 191.583,245.553 195.457,245.202 C199.331,244.849 207.785,242.384 213.067,231.29 C218.352,220.194 212.715,203.991 212.715,203.991 Z" id="Shape" fill="#FDCB9E"></path>
            <path d="M215.451,224.112 C215.451,224.112 217.063,220.526 218.588,220.796 C220.111,221.065 218.14,222.141 217.871,222.588 C217.603,223.036 218.677,223.665 218.319,224.291 C217.96,224.919 217.154,223.306 217.154,223.306 C217.154,223.306 216.706,225.099 215.899,225.008 C215.091,224.919 215.451,224.112 215.451,224.112 Z M172.522,223.303 C172.522,223.303 171.024,219.718 169.607,219.987 C168.191,220.256 170.024,221.331 170.274,221.78 C170.524,222.227 169.524,222.855 169.857,223.482 C170.19,224.109 170.939,222.496 170.939,222.496 C170.939,222.496 171.356,224.289 172.106,224.199 C172.856,224.108 172.522,223.303 172.522,223.303 Z" id="Shape" fill="#EFA978"></path>
            <ellipse id="Oval" fill="#512E17" cx="208.658" cy="217.488" rx="1.149" ry="1.62"></ellipse>
            <ellipse id="Oval" fill="#512E17" cx="179.916" cy="217.07" rx="1.15" ry="1.62"></ellipse>
            <path d="M207.726,211.889 C207.726,211.889 209.121,211.446 211.184,212.764 C213.248,214.082 212.004,210.859 209.166,210.553 C206.328,210.248 207.726,211.889 207.726,211.889 Z M181.646,211.518 C181.646,211.518 180.314,211.043 178.257,212.309 C176.2,213.575 177.547,210.392 180.308,210.155 C183.072,209.917 181.646,211.518 181.646,211.518 Z" id="Shape" fill="#512E17"></path>
            <path d="M196.116,226.006 C196.116,226.006 195.803,226.947 194.026,226.947 C192.25,226.947 191.727,225.693 191.518,226.11 C191.309,226.529 192.667,228.62 194.236,228.097 C195.803,227.574 196.639,226.424 196.534,226.11 C196.429,225.797 196.116,226.006 196.116,226.006 Z" id="Shape" fill="#EFA978"></path>
            <path d="M199.042,232.8 L187.754,232.696 C187.754,232.696 189.008,235.832 193.608,236.041 C198.207,236.249 199.042,232.8 199.042,232.8 Z" id="Shape" fill="#FFFFFF"></path>
            <path d="M236.825,249.036 C236.825,249.036 237.791,248.14 237.998,248.002 C238.206,247.863 242.278,247.381 242.555,247.381 C242.829,247.381 244.073,246.138 243.589,245.862 C243.106,245.585 242.347,246.621 242.347,246.621 C242.347,246.621 239.863,246.345 238.482,246.345 C237.101,246.345 235.375,245.93 234.961,245.93 C234.547,245.93 234.408,246.691 235.236,246.76 C236.065,246.828 235.305,247.449 235.718,248.002 C236.134,248.554 236.825,249.036 236.825,249.036 Z M185.018,282.15 C185.018,282.15 186.262,282.502 186.728,282.863 C187.194,283.225 187.97,282.967 187.918,283.382 C187.866,283.795 187.4,284.262 186.521,284.055 L185.64,283.848 L183.88,285.039 C183.88,285.039 182.638,284.055 183.104,283.226 C183.571,282.397 185.018,282.15 185.018,282.15 Z" id="Shape" fill="#FDCB9E"></path>
            <path d="M184.752,280.563 L185.38,282.151 C185.38,282.151 183.552,283.335 182.82,283.327 C182.089,283.32 181.884,281.78 181.884,281.78 L184.752,280.563 Z" id="Shape" fill="#19335E"></path>
            <path d="M184.564,255.43 L178.307,266.495 L185.018,280.851 C185.018,280.851 183.976,282.451 182.048,282.08 C180.12,281.709 174.311,267.861 174.092,266.219 C173.874,264.576 184.676,249.984 184.676,249.984 L184.564,255.43 Z" id="Shape" fill="#2AAAE2"></path>
            <path d="M236.203,250.418 C236.203,250.418 237.17,249.59 237.101,249.175 C237.032,248.761 235.996,247.588 234.685,247.656 C233.372,247.725 233.096,248.898 233.096,248.898 L236.203,250.418 Z" id="Shape" fill="#19335E"></path>
            <path d="M205,248.896 L220.534,258.426 C220.534,258.426 231.302,249.314 233.235,248.761 C235.169,248.209 236.549,249.865 235.996,250.97 C235.445,252.074 222.846,262.843 219.981,263.119 C217.117,263.395 204.243,253.179 204.243,253.179 L205,248.896 Z" id="Shape" fill="#2AAAE2"></path>
            <path d="M242.347,246.621 C242.347,246.621 243.797,244.274 242.83,244.481 C241.864,244.688 241.036,246.621 241.036,246.621 L242.347,246.621 Z" id="Shape" fill="#F3B98B"></path>
            <path d="M365,312 C365,314.209139 363.209139,316 361,316 L331,316 C328.790861,316 327,314.209139 327,312 L327,282 C327,279.790861 328.790861,278 331,278 L361,278 C363.209139,278 365,279.790861 365,282 L365,312 Z" id="Shape" fill="#8FD8F8"></path>
            <path d="M354.746,306.193 C354.630561,306.193294 354.519086,306.150912 354.433,306.074 L349.636,301.799 C349.441596,301.625306 349.424806,301.326904 349.5985,301.1325 C349.772194,300.938096 350.070596,300.921306 350.265,301.095 L355.061,305.37 C355.20518,305.501057 355.254243,305.707118 355.184595,305.889088 C355.114947,306.071058 354.940839,306.191701 354.746,306.193 Z" id="Shape" fill="#FFFFFF"></path>
            <path d="M425.875,326.364 L414.551,326.364 C414.290322,326.364 414.079,326.152678 414.079,325.892 C414.079,325.631322 414.290322,325.42 414.551,325.42 L425.875,325.42 C426.135678,325.42 426.347,325.631322 426.347,325.892 C426.347,326.152678 426.135678,326.364 425.875,326.364 Z" id="Shape" fill="#8FD8F8"></path>
            <path d="M489.101,326.364 L430.594,326.364 C430.333322,326.364 430.122,326.152678 430.122,325.892 C430.122,325.631322 430.333322,325.42 430.594,325.42 L488.157,325.42 L488.157,266.913 L413.49,266.913 C412.652,267.278 406.997,269.568 402.709,266.913 L313.58,266.913 L313.58,318.523 C313.603,318.673 314.3,323.567 320.922,325.419 L374.754,325.419 C375.515,324.953 379.47,322.757 382.503,325.419 L410.777,325.419 C411.037678,325.419 411.249,325.630322 411.249,325.891 C411.249,326.151678 411.037678,326.363 410.777,326.363 L382.132,326.363 L381.997,326.235 C379.18,323.595 375.194,326.255 375.155,326.281 L375.035,326.363 L320.731,326.346 C313.418,324.332 312.668,318.815 312.639,318.58 L312.635,265.968 L402.984,265.968 L403.1,266.044 C407.214,268.696 413.13,266.037 413.191,266.012 L413.387,265.968 L489.101,265.968 L489.101,326.364 Z" id="Shape" fill="#29AAE1"></path>
            <polygon id="Shape" fill="#E8ECEE" points="397.094 277.766 475.889 277.766 475.889 290.034 397.094 290.034"></polygon>
            <polygon id="Shape" fill="#8FD8F8" points="372.559 295.695 428.393 295.695 428.393 301.829 372.559 301.829"></polygon>
            <path d="M372.559,303.244 L420.921,303.244 L420.921,306.311 L372.559,306.311 L372.559,303.244 Z M372.559,308.206 L470.228,308.206 L470.228,313.382 L372.559,313.382 L372.559,308.206 Z M372.559,277.766 L394.027,277.766 L394.027,290.034 L372.559,290.034 L372.559,277.766 Z" id="Shape" fill="#E8ECEE"></path>
            <path d="M358.403,314.097 L328.206,314.097 C325.861913,314.094795 323.962205,312.195087 323.96,309.851 L323.96,279.654 C323.961654,277.309522 325.861523,275.409206 328.206,275.407 L358.403,275.407 C360.747477,275.409206 362.647346,277.309522 362.649,279.654 L362.649,309.851 C362.646245,312.194859 360.746859,314.094245 358.403,314.097 Z M328.206,276.351 C326.382489,276.352654 324.904654,277.830489 324.903,279.654 L324.903,309.851 C324.905204,311.674283 326.382717,313.151796 328.206,313.154 L358.403,313.154 C360.226283,313.151796 361.703796,311.674283 361.706,309.851 L361.706,279.654 C361.704346,277.830489 360.226511,276.352654 358.403,276.351 L328.206,276.351 Z" id="Shape" fill="#29AAE1"></path>
            <path d="M343.541,304.188 C338.857,304.188 335.048,300.378 335.048,295.695 C335.048,291.012 338.858,287.202 343.541,287.202 C348.224,287.202 352.033,291.012 352.033,295.695 C352.033,300.378 348.224,304.188 343.541,304.188 Z M343.541,288.146 C339.378,288.146 335.991,291.533 335.991,295.695 C335.991,299.858 339.378,303.244 343.541,303.244 C347.703,303.244 351.09,299.858 351.09,295.695 C351.09,291.533 347.703,288.146 343.541,288.146 Z" id="Shape" fill="#FFFFFF"></path>
            <path d="M332.768,304.188 C332.587757,304.188314 332.423072,304.085949 332.343572,303.924186 C332.264072,303.762423 332.283639,303.569506 332.394,303.427 L339.531,294.17 L345.423,296.477 L351.95,286.164 C352.096121,285.960606 352.375456,285.906362 352.587081,286.040285 C352.798706,286.174208 352.869263,286.449875 352.748,286.669 L345.803,297.64 L339.845,295.308 L333.142,304.004 C333.052833,304.120282 332.914534,304.188322 332.768,304.188 Z" id="Shape" fill="#FFFFFF"></path>
            <circle id="Oval" fill="#FFFFFF" cx="488.067" cy="269.763" r="14.058"></circle>
            <path d="M488.067,284.291 C480.056,284.291 473.538,277.774 473.538,269.763 C473.538,261.752 480.057,255.234 488.067,255.234 C496.077,255.234 502.596,261.752 502.596,269.763 C502.596,277.774 496.078,284.291 488.067,284.291 Z M488.067,256.177 C480.576,256.177 474.482,262.272 474.482,269.763 C474.482,277.253 480.576,283.348 488.067,283.348 C495.558,283.348 501.652,277.253 501.652,269.763 C501.652,262.271 495.559,256.177 488.067,256.177 Z" id="Shape" fill="#29AAE1"></path>
            <path d="M494.813,277.067 L481.32,277.067 C480.53,277.067 479.885,276.423 479.885,275.632 L479.931,274.465 C481.155,271.891 483.042,271.344 483.122,271.321 L483.248,271.304 L484.212,271.304 C485.015,271.304 485.667,270.651 485.667,269.848 L485.667,269.374 C485.293668,268.902903 485.006889,268.369298 484.82,267.798 L484.775,267.651 C484.219,267.214 484.049,266.313 484.418,265.642 C484.43,265.617 484.46,265.57 484.492,265.522 L484.49,264.959 C484.489,264.588 484.488,264.217 484.493,263.847 C484.522,263.154 484.709,262.54 485.036,262.061 C485.424,261.483 486.068,261.043 486.806,260.858 C487.559767,260.671971 488.345076,260.652859 489.107,260.802 C489.801,260.934 490.396,261.242 490.824,261.696 C491.332,262.233 491.623,263.018 491.641,263.907 C491.644,264.292 491.643,264.671 491.642,265.049 L491.641,265.525 C491.656223,265.546198 491.670245,265.568232 491.683,265.591 C492.065,266.199 491.965,267.068 491.441,267.591 L491.35,267.675 L491.349,267.675 C491.161744,268.298385 490.862158,268.882307 490.465,269.398 L490.465,269.849 C490.465,270.652 491.118,271.305 491.921,271.305 L493.01,271.322 C493.09,271.344 494.979,271.891 496.202,274.466 L496.247,274.668 L496.247,275.633 C496.246448,276.424748 495.604748,277.066448 494.813,277.067 Z M480.829,274.776 L480.829,275.632 C480.829,275.903 481.05,276.123 481.32,276.123 L494.813,276.123 C495.083944,276.12245 495.30345,275.902944 495.304,275.632 L495.304,274.776 C494.376,272.893 493.093,272.348 492.81,272.249 L491.921,272.249 C490.596526,272.247897 489.523103,271.174474 489.522,269.85 L489.522,269.058 L489.632,268.927 C490.004,268.486 490.283,267.957 490.464,267.356 C490.495,267.167 490.651,267.034 490.734,266.962 C490.987,266.711 491.032,266.328 490.872,266.073 C490.799,265.968 490.691,265.817 490.698,265.598 L490.699,265.047 C490.7,264.672 490.701,264.296 490.698,263.921 C490.684,263.274 490.485,262.712 490.138,262.347 C489.77,261.957 489.279,261.796 488.931,261.73 C488.304034,261.606636 487.657721,261.621309 487.037,261.773 C486.522,261.904 486.078,262.201 485.818,262.59 C485.588,262.926 485.457,263.369 485.437,263.873 C485.431,264.226 485.432,264.592 485.433,264.958 L485.433,265.583 C485.458,265.783 485.334,265.964 485.275,266.05 C485.093,266.374 485.168,266.771 485.406,266.967 C485.598,267.1 485.664,267.323 485.702,267.458 C485.879,268.006 486.141,268.476 486.501,268.907 L486.61,269.038 L486.61,269.849 C486.608898,271.173084 485.536084,272.246346 484.212,272.248 L483.321,272.248 C483.046,272.347 481.76,272.889 480.829,274.776 Z" id="Shape" fill="#2075BC"></path>
            <polygon id="Shape" fill="#19335E" points="414.353 304.306 404.66 298.762 403.944 309.904 406.698 307.235 411.432 316.032 415.34 313.93 410.607 305.134"></polygon>
            <path d="M52,151 C52,153.209139 50.209139,155 48,155 L18,155 C15.790861,155 14,153.209139 14,151 L14,121 C14,118.790861 15.790861,117 18,117 L48,117 C50.209139,117 52,118.790861 52,121 L52,151 Z" id="Shape" fill="#D7D7EC"></path>
            <path d="M42.395,144.828 C42.2794463,144.827925 42.1679877,144.785193 42.082,144.708 L37.286,140.433 C37.1159854,140.254212 37.1115494,139.974901 37.2758007,139.790804 C37.440052,139.606707 37.7180591,139.579391 37.915,139.728 L42.711,144.003 C42.8557257,144.134341 42.9050026,144.341044 42.8350966,144.523552 C42.7651906,144.706059 42.5904349,144.826951 42.395,144.828 Z" id="Shape" fill="#FFFFFF"></path>
            <path d="M113.523,164.998 L102.199,164.998 C101.938322,164.998 101.727,164.786678 101.727,164.526 C101.727,164.265322 101.938322,164.054 102.199,164.054 L113.523,164.054 C113.783678,164.054 113.995,164.265322 113.995,164.526 C113.995,164.786678 113.783678,164.998 113.523,164.998 Z" id="Shape" fill="#D7D7EC"></path>
            <path d="M176.749,164.998 L118.242,164.998 C117.981322,164.998 117.77,164.786678 117.77,164.526 C117.77,164.265322 117.981322,164.054 118.242,164.054 L175.805,164.054 L175.805,105.547 L101.138,105.547 C100.3,105.913 94.645,108.203 90.357,105.547 L1.228,105.547 L1.228,157.158 C1.251,157.308 1.948,162.201 8.57,164.054 L62.402,164.054 C63.162,163.589 67.117,161.391 70.151,164.054 L98.425,164.054 C98.6856784,164.054 98.897,164.265322 98.897,164.526 C98.897,164.786678 98.6856784,164.998 98.425,164.998 L69.78,164.998 L69.644,164.87 C66.827,162.231 62.842,164.89 62.803,164.916 L62.683,164.998 L8.379,164.981 C1.066,162.967 0.316,157.449 0.287,157.215 L0.283,104.603 L90.631,104.603 L90.748,104.678 C94.862,107.331 100.778,104.672 100.838,104.646 L101.035,104.603 L176.747,104.603 L176.747,164.998 L176.749,164.998 Z" id="Shape" fill="#D7D7EC"></path>
            <polygon id="Shape" fill="#E8ECEE" points="84.741 116.399 163.537 116.399 163.537 128.667 84.741 128.667"></polygon>
            <polygon id="Shape" fill="#D7D7EC" points="60.206 134.329 116.04 134.329 116.04 140.463 60.206 140.463"></polygon>
            <path d="M60.206,141.878 L108.569,141.878 L108.569,144.945 L60.206,144.945 L60.206,141.878 Z M60.206,146.84 L157.875,146.84 L157.875,152.016 L60.206,152.016 L60.206,146.84 Z M60.206,116.399 L81.674,116.399 L81.674,128.667 L60.206,128.667 L60.206,116.399 Z" id="Shape" fill="#E8ECEE"></path>
            <path d="M46.051,152.73 L15.854,152.73 C13.5095889,152.727245 11.6097552,150.827411 11.607,148.483 L11.607,118.286 C11.6097552,115.941589 13.5095889,114.041755 15.854,114.039 L46.051,114.039 C48.3954111,114.041755 50.2952448,115.941589 50.298,118.286 L50.298,148.483 C50.2963454,150.827868 48.3958676,152.728345 46.051,152.73 Z M15.854,114.984 C14.0307172,114.986204 12.553204,116.463717 12.551,118.287 L12.551,148.484 C12.553204,150.307283 14.0307172,151.784796 15.854,151.787 L46.051,151.787 C47.8742828,151.784796 49.351796,150.307283 49.354,148.484 L49.354,118.287 C49.351796,116.463717 47.8742828,114.986204 46.051,114.984 L15.854,114.984 Z" id="Shape" fill="#B3B4C7"></path>
            <path d="M31.188,142.822 C26.505,142.822 22.695,139.012 22.695,134.329 C22.695,129.646 26.505,125.836 31.188,125.836 C35.872,125.836 39.681,129.646 39.681,134.329 C39.682,139.013 35.872,142.822 31.188,142.822 Z M31.188,126.78 C27.025,126.78 23.639,130.167 23.639,134.329 C23.639,138.491 27.026,141.878 31.188,141.878 C35.35,141.878 38.737,138.491 38.737,134.329 C38.737,130.167 35.351,126.78 31.188,126.78 Z" id="Shape" fill="#FFFFFF"></path>
            <path d="M20.416,142.822 C20.2361095,142.821539 20.0720523,142.719075 19.9927076,142.557628 C19.913363,142.396181 19.9324674,142.2037 20.042,142.061 L27.179,132.804 L33.07,135.11 L39.598,124.797 C39.7432565,124.590619 40.0249562,124.534628 40.2380943,124.669776 C40.4512324,124.804924 40.5207253,125.0836 40.396,125.303 L33.451,136.274 L27.493,133.942 L20.79,142.638 C20.7008329,142.754282 20.5625335,142.822322 20.416,142.822 Z" id="Shape" fill="#FFFFFF"></path>
            <circle id="Oval" fill="#FFFFFF" cx="175.715" cy="108.397" r="14.057"></circle>
            <path d="M175.715,122.925 C167.704,122.925 161.186,116.407 161.186,108.397 C161.186,100.385 167.704,93.867 175.715,93.867 C183.726,93.867 190.244,100.385 190.244,108.397 C190.245,116.408 183.727,122.925 175.715,122.925 Z M175.715,94.811 C168.224,94.811 162.13,100.906 162.13,108.397 C162.13,115.887 168.224,121.981 175.715,121.981 C183.206,121.981 189.3,115.887 189.3,108.397 C189.301,100.905 183.207,94.811 175.715,94.811 Z" id="Shape" fill="#CAD2EB"></path>
            <path d="M182.461,115.701 L168.969,115.701 C168.176928,115.699898 167.535102,115.058072 167.534,114.266 L167.58,113.099 C168.803,110.525 170.691,109.978 170.771,109.955 L170.896,109.938 L171.86,109.938 C172.663,109.938 173.315,109.285 173.315,108.482 L173.315,108.008 C172.942358,107.536608 172.655954,107.00307 172.469,106.432 L172.424,106.285 C171.868,105.848 171.699,104.947 172.067,104.276 C172.079,104.25 172.109,104.203 172.142,104.155 L172.139,103.593 C172.138,103.221 172.138,102.851 172.143,102.481 C172.171,101.788 172.359,101.174 172.686,100.695 C173.073,100.117 173.718,99.678 174.455,99.492 C175.208767,99.3059708 175.994076,99.2868586 176.756,99.436 C177.45,99.568 178.044,99.876 178.473,100.33 C178.981,100.866 179.271,101.651 179.29,102.541 C179.293,102.925 179.292,103.304 179.291,103.683 L179.29,104.159 C179.305095,104.180284 179.319113,104.202311 179.332,104.225 C179.713,104.833 179.614,105.701 179.09,106.225 L179,106.309 L178.999,106.309 C178.811953,106.932469 178.512348,107.516428 178.115,108.032 L178.115,108.483 C178.115,109.286 178.768,109.939 179.571,109.939 L180.659,109.956 C180.739,109.978 182.628,110.526 183.851,113.1 L183.896,113.302 L183.896,114.267 C183.896,115.058 183.252,115.701 182.461,115.701 Z M168.478,113.41 L168.478,114.266 C168.478,114.537 168.698,114.757 168.969,114.757 L182.461,114.757 C182.732,114.757 182.952,114.537 182.952,114.266 L182.952,113.41 C182.025,111.527 180.741,110.983 180.458,110.883 L179.57,110.883 C178.245202,110.881347 177.171653,109.807798 177.17,108.483 L177.17,107.691 L177.281,107.559 C177.663521,107.09819 177.946768,106.563356 178.113,105.988 C178.144,105.799 178.299,105.667 178.382,105.594 C178.635,105.344 178.68,104.961 178.52,104.706 C178.446,104.601 178.338,104.45 178.346,104.231 L178.347,103.68 C178.348,103.305 178.349,102.929 178.346,102.555 C178.332,101.907 178.133,101.346 177.787,100.98 C177.418,100.59 176.927,100.43 176.579,100.363 C175.952151,100.238793 175.305727,100.253127 174.685,100.405 C174.171,100.536 173.727,100.833 173.467,101.222 C173.237,101.558 173.106,102.002 173.085,102.506 C173.08,102.858 173.081,103.225 173.082,103.59 L173.082,104.215 C173.108,104.415 172.983,104.595 172.923,104.682 C172.742,105.005 172.816,105.403 173.054,105.599 C173.247,105.731 173.312,105.955 173.351,106.09 C173.527,106.637 173.789,107.107 174.149,107.538 L174.259,107.669 L174.259,108.48 C174.259,109.803 173.183,110.88 171.86,110.88 L170.97,110.88 C170.694,110.981 169.407,111.523 168.478,113.41 Z" id="Shape" fill="#B3B4C7"></path>
            <polygon id="Shape" fill="#19335E" points="102.001 142.939 92.308 137.396 91.592 148.539 94.347 145.87 99.08 154.666 102.988 152.564 98.256 143.768"></polygon>
            <path d="M351,85 C351,87.209139 349.209139,89 347,89 L317,89 C314.790861,89 313,87.209139 313,85 L313,55 C313,52.790861 314.790861,51 317,51 L347,51 C349.209139,51 351,52.790861 351,55 L351,85 Z" id="Shape" fill="#D8E028"></path>
            <path d="M341.535,78.771 C341.419446,78.7709248 341.307988,78.7281931 341.222,78.651 L336.426,74.376 C336.300064,74.26364 336.243637,74.0926289 336.277976,73.927385 C336.312315,73.7621411 336.432201,73.6277688 336.592476,73.574885 C336.752751,73.5220011 336.929064,73.5586399 337.055,73.671 L341.851,77.946 C341.996839,78.0769031 342.046852,78.2841815 341.976756,78.467187 C341.906659,78.6501925 341.730971,78.7710203 341.535,78.771 Z" id="Shape" fill="#FFFFFF"></path>
            <path d="M412.664,98.942 L401.34,98.942 C401.079322,98.942 400.868,98.7306784 400.868,98.47 C400.868,98.2093216 401.079322,97.998 401.34,97.998 L412.664,97.998 C412.924678,97.998 413.136,98.2093216 413.136,98.47 C413.136,98.7306784 412.924678,98.942 412.664,98.942 Z" id="Shape" fill="#D8E028"></path>
            <path d="M475.889,98.942 L417.382,98.942 C417.121322,98.942 416.91,98.7306784 416.91,98.47 C416.91,98.2093216 417.121322,97.998 417.382,97.998 L474.945,97.998 L474.945,39.491 L400.278,39.491 C399.44,39.857 393.785,42.147 389.497,39.491 L300.368,39.491 L300.368,91.102 C300.39,91.252 301.088,96.145 307.71,97.998 L361.542,97.998 C362.303,97.533 366.258,95.336 369.29,97.998 L397.565,97.998 C397.825678,97.998 398.037,98.2093216 398.037,98.47 C398.037,98.7306784 397.825678,98.942 397.565,98.942 L368.92,98.942 L368.784,98.814 C365.967,96.174 361.982,98.833 361.942,98.86 L361.823,98.942 L307.519,98.925 C300.206,96.911 299.456,91.393 299.426,91.159 L299.423,38.547 L389.771,38.547 L389.888,38.623 C394.002,41.276 399.918,38.617 399.978,38.591 L400.175,38.548 L475.887,38.548 L475.887,98.942 L475.889,98.942 Z" id="Shape" fill="#D8E028"></path>
            <polygon id="Shape" fill="#E8ECEE" points="383.882 50.343 462.678 50.343 462.678 62.611 383.882 62.611"></polygon>
            <polygon id="Shape" fill="#D8E028" points="359.347 68.273 415.182 68.273 415.182 74.407 359.347 74.407"></polygon>
            <path d="M359.347,75.822 L407.71,75.822 L407.71,78.889 L359.347,78.889 L359.347,75.822 Z M359.347,80.784 L457.016,80.784 L457.016,85.959 L359.347,85.959 L359.347,80.784 Z M359.347,50.343 L380.816,50.343 L380.816,62.611 L359.347,62.611 L359.347,50.343 Z" id="Shape" fill="#E8ECEE"></path>
            <path d="M345.192,86.674 L314.995,86.674 C312.650589,86.6712448 310.750755,84.7714111 310.748,82.427 L310.748,52.23 C310.750756,49.8857512 312.650751,47.9862042 314.995,47.984 L345.192,47.984 C347.535859,47.9867552 349.435245,49.8861411 349.438,52.23 L349.438,82.427 C349.436346,84.7714775 347.536477,86.671794 345.192,86.674 Z M314.995,48.928 C313.171717,48.930204 311.694204,50.4077172 311.692,52.231 L311.692,82.428 C311.693654,84.251511 313.171489,85.729346 314.995,85.731 L345.192,85.731 C347.015055,85.7282466 348.492247,84.2510548 348.495,82.428 L348.495,52.23 C348.492796,50.4067172 347.015283,48.929204 345.192,48.927 L314.995,48.927 L314.995,48.928 Z" id="Shape" fill="#8EC641"></path>
            <path d="M330.329,76.766 C325.646,76.766 321.836,72.956 321.836,68.273 C321.836,63.589 325.647,59.78 330.329,59.78 C335.013,59.78 338.822,63.59 338.822,68.273 C338.822,72.956 335.013,76.766 330.329,76.766 Z M330.329,60.724 C326.167,60.724 322.78,64.111 322.78,68.273 C322.78,72.435 326.167,75.822 330.329,75.822 C334.492,75.822 337.879,72.435 337.879,68.273 C337.879,64.111 334.492,60.724 330.329,60.724 Z" id="Shape" fill="#FFFFFF"></path>
            <path d="M319.557,76.766 C319.376757,76.7663135 319.212072,76.663949 319.132572,76.502186 C319.053072,76.340423 319.072639,76.147506 319.183,76.005 L326.319,66.748 L332.211,69.055 L338.739,58.742 C338.878876,58.5225176 339.169789,58.4572744 339.39,58.596 C339.496062,58.6626468 339.571131,58.7688746 339.598543,58.8911018 C339.625955,59.0133289 339.603441,59.1414416 339.536,59.247 L332.592,70.218 L326.634,67.885 L319.931,76.582 C319.841338,76.6976764 319.703356,76.7655604 319.557,76.766 Z" id="Shape" fill="#FFFFFF"></path>
            <circle id="Oval" fill="#FFFFFF" cx="474.856" cy="42.341" r="14.057"></circle>
            <path d="M474.856,56.869 C466.844,56.869 460.327,50.352 460.327,42.341 C460.327,34.329 466.845,27.811 474.856,27.811 C482.867,27.811 489.384,34.329 489.384,42.341 C489.385,50.352 482.867,56.869 474.856,56.869 Z M474.856,28.754 C467.365,28.754 461.27,34.849 461.27,42.34 C461.27,49.83 467.365,55.924 474.856,55.924 C482.347,55.924 488.441,49.83 488.441,42.34 C488.441,34.849 482.348,28.754 474.856,28.754 Z" id="Shape" fill="#D8E028"></path>
            <path d="M481.602,49.645 L468.11,49.645 C467.3177,49.6444485 466.675552,49.0023 466.675,48.21 L466.721,47.043 C467.944,44.469 469.832,43.921 469.912,43.899 L470.037,43.882 L471.001,43.882 C471.804,43.882 472.456,43.229 472.456,42.426 L472.456,41.952 C472.083534,41.4804923 471.797147,40.9469872 471.61,40.376 L471.565,40.229 C471.009,39.792 470.839,38.891 471.208,38.22 C471.22,38.194 471.25,38.147 471.282,38.099 L471.279,37.537 C471.278,37.165 471.277,36.795 471.283,36.425 C471.311,35.732 471.499,35.118 471.826,34.639 C472.213,34.061 472.858,33.621 473.596,33.435 C474.34984,33.249302 475.135148,33.230531 475.897,33.38 C476.591,33.512 477.185,33.82 477.614,34.274 C478.122,34.81 478.412,35.595 478.431,36.484 C478.434,36.868 478.433,37.247 478.432,37.626 L478.431,38.102 C478.446095,38.1232836 478.460113,38.1453113 478.473,38.168 C478.854,38.776 478.754,39.644 478.23,40.168 L478.14,40.252 L478.139,40.252 C477.952157,40.8752449 477.652528,41.4589112 477.255,41.974 L477.255,42.426 C477.255,43.229 477.908,43.882 478.711,43.882 L479.799,43.899 C479.879,43.921 481.769,44.468 482.991,47.043 L483.037,47.245 L483.037,48.21 C483.037,49.001 482.394,49.645 481.602,49.645 Z M467.618,47.354 L467.618,48.21 C467.618,48.481 467.839,48.701 468.109,48.701 L481.601,48.701 C481.872,48.701 482.092,48.481 482.092,48.21 L482.092,47.354 C481.165,45.471 479.881,44.926 479.599,44.827 L478.71,44.827 C477.385364,44.825346 476.312102,43.7516364 476.311,42.427 L476.311,41.635 L476.421,41.503 C476.793,41.063 477.072,40.533 477.253,39.932 C477.284,39.743 477.44,39.61 477.523,39.538 C477.776,39.288 477.82,38.905 477.661,38.65 C477.588,38.545 477.479,38.394 477.487,38.175 L477.488,37.624 C477.489,37.249 477.49,36.873 477.487,36.499 C477.473,35.851 477.274,35.29 476.927,34.924 C476.558,34.534 476.068,34.374 475.72,34.308 C475.093154,34.1837604 474.446722,34.1980952 473.826,34.35 C473.311,34.481 472.867,34.778 472.607,35.168 C472.377,35.504 472.246,35.947 472.225,36.452 C472.22,36.804 472.221,37.171 472.222,37.536 L472.222,38.161 C472.247,38.361 472.123,38.541 472.063,38.628 C471.881,38.952 471.957,39.349 472.194,39.545 C472.387,39.678 472.452,39.902 472.491,40.036 C472.667,40.583 472.929,41.054 473.289,41.485 L473.399,41.616 L473.399,42.427 C473.399,43.75 472.322,44.827 471,44.827 L470.11,44.827 C469.835,44.925 468.548,45.466 467.618,47.354 Z" id="Shape" fill="#8EC641"></path>
            <polygon id="Shape" fill="#19335E" points="401.142 76.883 391.449 71.34 390.732 82.482 393.487 79.813 398.221 88.609 402.129 86.507 397.396 77.711"></polygon>
            <path d="M243.435,0.801 L307.023,0.801 L307.023,8.98 L243.435,8.98 L243.435,0.801 Z M49.88,63.24 L113.469,63.24 L113.469,71.419 L49.88,71.419 L49.88,63.24 Z M14.221,211.361 L77.81,211.361 L77.81,219.54 L14.221,219.54 L14.221,211.361 Z M85.338,300.1 L148.927,300.1 L148.927,308.279 L85.338,308.279 L85.338,300.1 Z M415.34,140.856 L478.929,140.856 L478.929,149.035 L415.34,149.035 L415.34,140.856 Z M207.354,21.562 L249.412,21.562 L249.412,28.283 L207.354,28.283 L207.354,21.562 Z M56.783,238.918 L98.84,238.918 L98.84,243.896 L56.783,243.896 L56.783,238.918 Z M470.228,183.642 L512.284,183.642 L512.284,188.62 L470.228,188.62 L470.228,183.642 Z M418.407,233.561 L460.463,233.561 L460.463,238.538 L418.407,238.538 L418.407,233.561 Z" id="Shape" fill="#F3F5F6"></path>
        </g>
    </g>
</svg>